<?xml version="1.0" encoding="UTF-8"?><svg id="Layer_1" xmlns="http://www.w3.org/2000/svg" width="104" height="104" viewBox="0 0 104 104"><defs><style>.cls-1{fill:none;}</style></defs><path d="m52,52h-10.4c0-11.24-5.48-19.07-10.4-19.07s-10.4,7.83-10.4,19.07c0,.18,0,.35,0,.52.06,10.2,1.96,19.95,5.43,28.13-9.19-3.08-15.83-14.56-15.83-28.65,0-16.52,9.14-29.47,20.8-29.47s20.8,12.94,20.8,29.47Z"/><path d="m41.6,52h-10.4c0,9.98,1.79,19.44,5.03,26.65,4.37,9.72,10,12.45,13.85,13.07-.11-.2-.21-.41-.32-.62-5.26-10.53-8.16-24.41-8.16-39.1Z"/><path d="m93.6,52c0-11.72-1.74-22.82-4.9-31.24-1.66-4.42-3.65-7.96-5.94-10.54-3.68-4.15-7.45-5.02-9.96-5.02-1.71,0-4.01.4-6.46,1.97,2.9,2.36,5.52,5.43,7.82,9.14,1.23,1.02,3.02,3.34,4.8,8.1,2.63,7.01,4.12,16.33,4.23,26.38,0,.12,0,.24,0,.37,0,.28,0,.56,0,.85h0c0,10.5-1.51,20.3-4.24,27.59-2.7,7.19-5.42,8.81-6.16,8.81s-3.47-1.62-6.16-8.81c-2.73-7.29-4.24-17.09-4.24-27.59h10.4c0-9.98-1.79-19.44-5.03-26.65-5.18-11.5-12.1-13.22-15.77-13.22-2.09,0-5.24.56-8.53,3.17.13.07.27.15.4.22,3.11,1.75,5.93,4.11,8.42,7.03,2.08.3,4.48,3.7,5.99,7.07,2.51,5.58,4,13.34,4.1,21.41,0,.1,0,.2,0,.29,0,.23,0,.45,0,.68h-10.4c0,11.72,1.74,22.81,4.9,31.24,1.66,4.42,3.65,7.97,5.94,10.54,3.68,4.15,7.45,5.02,9.96,5.02s6.29-.87,9.96-5.02c2.28-2.57,4.28-6.12,5.94-10.54,3.16-8.43,4.9-19.52,4.9-31.24h0Z"/><rect class="cls-1" width="104" height="104"/></svg>
