<?xml version="1.0" encoding="UTF-8"?><svg id="Layer_1" xmlns="http://www.w3.org/2000/svg" width="758" height="216" viewBox="0 0 758 216"><defs><style>.cls-1{fill:none;}</style></defs><path d="m180.44,148v-56h12.16l17.84,35.52,17.6-35.52h12.16v56h-10.24v-38.64l-15.6,30.64h-8.08l-15.6-30.64v38.64h-10.24Z"/><path d="m266.12,148.96c-4,0-7.55-.85-10.64-2.56-3.09-1.71-5.52-4.11-7.28-7.2-1.76-3.09-2.64-6.67-2.64-10.72s.87-7.76,2.6-10.96,4.13-5.69,7.2-7.48c3.07-1.79,6.68-2.68,10.84-2.68,3.89,0,7.33.85,10.32,2.56,2.99,1.71,5.32,4.04,7,7s2.52,6.25,2.52,9.88c0,.59-.01,1.2-.04,1.84-.03.64-.07,1.31-.12,2h-30.16c.21,3.09,1.29,5.52,3.24,7.28,1.95,1.76,4.31,2.64,7.08,2.64,2.08,0,3.83-.47,5.24-1.4,1.41-.93,2.47-2.15,3.16-3.64h10.4c-.75,2.51-1.99,4.79-3.72,6.84-1.73,2.05-3.87,3.67-6.4,4.84-2.53,1.17-5.4,1.76-8.6,1.76Zm.08-33.28c-2.51,0-4.72.71-6.64,2.12-1.92,1.41-3.15,3.56-3.68,6.44h19.76c-.16-2.61-1.12-4.69-2.88-6.24s-3.95-2.32-6.56-2.32Z"/><path d="m307.08,148.96c-3.52,0-6.61-.57-9.28-1.72-2.67-1.15-4.8-2.73-6.4-4.76-1.6-2.03-2.56-4.37-2.88-7.04h10.32c.32,1.55,1.19,2.87,2.6,3.96,1.41,1.09,3.24,1.64,5.48,1.64s3.88-.45,4.92-1.36c1.04-.91,1.56-1.95,1.56-3.12,0-1.71-.75-2.87-2.24-3.48s-3.57-1.21-6.24-1.8c-1.71-.37-3.44-.83-5.2-1.36-1.76-.53-3.37-1.21-4.84-2.04-1.47-.83-2.65-1.89-3.56-3.2-.91-1.31-1.36-2.92-1.36-4.84,0-3.52,1.4-6.48,4.2-8.88,2.8-2.4,6.73-3.6,11.8-3.6,4.69,0,8.44,1.09,11.24,3.28,2.8,2.19,4.47,5.2,5,9.04h-9.68c-.59-2.93-2.8-4.4-6.64-4.4-1.92,0-3.4.37-4.44,1.12-1.04.75-1.56,1.68-1.56,2.8s.77,2.11,2.32,2.8c1.55.69,3.6,1.33,6.16,1.92,2.77.64,5.32,1.35,7.64,2.12,2.32.77,4.17,1.92,5.56,3.44,1.39,1.52,2.08,3.69,2.08,6.52.05,2.45-.59,4.67-1.92,6.64-1.33,1.97-3.25,3.52-5.76,4.64-2.51,1.12-5.47,1.68-8.88,1.68Z"/><path d="m345.08,148.96c-3.52,0-6.61-.57-9.28-1.72-2.67-1.15-4.8-2.73-6.4-4.76-1.6-2.03-2.56-4.37-2.88-7.04h10.32c.32,1.55,1.19,2.87,2.6,3.96,1.41,1.09,3.24,1.64,5.48,1.64s3.88-.45,4.92-1.36c1.04-.91,1.56-1.95,1.56-3.12,0-1.71-.75-2.87-2.24-3.48s-3.57-1.21-6.24-1.8c-1.71-.37-3.44-.83-5.2-1.36-1.76-.53-3.37-1.21-4.84-2.04-1.47-.83-2.65-1.89-3.56-3.2-.91-1.31-1.36-2.92-1.36-4.84,0-3.52,1.4-6.48,4.2-8.88,2.8-2.4,6.73-3.6,11.8-3.6,4.69,0,8.44,1.09,11.24,3.28,2.8,2.19,4.47,5.2,5,9.04h-9.68c-.59-2.93-2.8-4.4-6.64-4.4-1.92,0-3.4.37-4.44,1.12-1.04.75-1.56,1.68-1.56,2.8s.77,2.11,2.32,2.8c1.55.69,3.6,1.33,6.16,1.92,2.77.64,5.32,1.35,7.64,2.12,2.32.77,4.17,1.92,5.56,3.44,1.39,1.52,2.08,3.69,2.08,6.52.05,2.45-.59,4.67-1.92,6.64-1.33,1.97-3.25,3.52-5.76,4.64-2.51,1.12-5.47,1.68-8.88,1.68Z"/><path d="m380.36,148.96c-3.41,0-6.21-.55-8.4-1.64-2.19-1.09-3.81-2.55-4.88-4.36-1.07-1.81-1.6-3.81-1.6-6,0-3.68,1.44-6.67,4.32-8.96,2.88-2.29,7.2-3.44,12.96-3.44h10.08v-.96c0-2.72-.77-4.72-2.32-6-1.55-1.28-3.47-1.92-5.76-1.92-2.08,0-3.89.49-5.44,1.48-1.55.99-2.51,2.44-2.88,4.36h-10c.27-2.88,1.24-5.39,2.92-7.52,1.68-2.13,3.85-3.77,6.52-4.92,2.67-1.15,5.65-1.72,8.96-1.72,5.65,0,10.11,1.41,13.36,4.24,3.25,2.83,4.88,6.83,4.88,12v24.4h-8.72l-.96-6.4c-1.17,2.13-2.81,3.89-4.92,5.28-2.11,1.39-4.81,2.08-8.12,2.08Zm2.32-8c2.93,0,5.21-.96,6.84-2.88,1.63-1.92,2.65-4.29,3.08-7.12h-8.72c-2.72,0-4.67.49-5.84,1.48-1.17.99-1.76,2.2-1.76,3.64,0,1.55.59,2.75,1.76,3.6,1.17.85,2.72,1.28,4.64,1.28Z"/><path d="m425.64,136.16c-1.92,0-3.71-.21-5.36-.64l-2.96,2.96c.91.48,2.13.88,3.68,1.2,1.55.32,4.05.64,7.52.96,5.28.48,9.12,1.73,11.52,3.76,2.4,2.03,3.6,4.83,3.6,8.4,0,2.35-.64,4.57-1.92,6.68-1.28,2.11-3.25,3.81-5.92,5.12-2.67,1.31-6.08,1.96-10.24,1.96-5.65,0-10.21-1.05-13.68-3.16-3.47-2.11-5.2-5.27-5.2-9.48,0-3.57,1.73-6.67,5.2-9.28-1.07-.48-1.99-.99-2.76-1.52-.77-.53-1.45-1.09-2.04-1.68v-1.84l6.96-7.36c-3.09-2.72-4.64-6.21-4.64-10.48,0-2.67.65-5.09,1.96-7.28,1.31-2.19,3.16-3.92,5.56-5.2,2.4-1.28,5.31-1.92,8.72-1.92,2.24,0,4.32.32,6.24.96h15.04v6.24l-6.8.48c1.07,2.03,1.6,4.27,1.6,6.72,0,2.67-.64,5.09-1.92,7.28-1.28,2.19-3.13,3.92-5.56,5.2-2.43,1.28-5.29,1.92-8.6,1.92Zm-9.6,16.72c0,1.97.92,3.45,2.76,4.44,1.84.99,4.09,1.48,6.76,1.48s4.64-.52,6.24-1.56c1.6-1.04,2.4-2.44,2.4-4.2,0-1.44-.52-2.64-1.56-3.6s-3.11-1.55-6.2-1.76c-2.19-.16-4.21-.4-6.08-.72-1.55.85-2.65,1.79-3.32,2.8-.67,1.01-1,2.05-1,3.12Zm9.6-24.56c2.08,0,3.8-.56,5.16-1.68,1.36-1.12,2.04-2.72,2.04-4.8s-.68-3.68-2.04-4.8c-1.36-1.12-3.08-1.68-5.16-1.68-2.19,0-3.95.56-5.28,1.68s-2,2.72-2,4.8.67,3.68,2,4.8,3.09,1.68,5.28,1.68Z"/><path d="m468.04,148.96c-4,0-7.55-.85-10.64-2.56-3.09-1.71-5.52-4.11-7.28-7.2-1.76-3.09-2.64-6.67-2.64-10.72s.87-7.76,2.6-10.96,4.13-5.69,7.2-7.48c3.07-1.79,6.68-2.68,10.84-2.68,3.89,0,7.33.85,10.32,2.56,2.99,1.71,5.32,4.04,7,7s2.52,6.25,2.52,9.88c0,.59-.01,1.2-.04,1.84-.03.64-.07,1.31-.12,2h-30.16c.21,3.09,1.29,5.52,3.24,7.28,1.95,1.76,4.31,2.64,7.08,2.64,2.08,0,3.83-.47,5.24-1.4,1.41-.93,2.47-2.15,3.16-3.64h10.4c-.75,2.51-1.99,4.79-3.72,6.84-1.73,2.05-3.87,3.67-6.4,4.84-2.53,1.17-5.4,1.76-8.6,1.76Zm.08-33.28c-2.51,0-4.72.71-6.64,2.12-1.92,1.41-3.15,3.56-3.68,6.44h19.76c-.16-2.61-1.12-4.69-2.88-6.24s-3.95-2.32-6.56-2.32Z"/><path d="m492.84,148v-56h12.16l17.84,35.52,17.6-35.52h12.16v56h-10.24v-38.64l-15.6,30.64h-8.08l-15.6-30.64v38.64h-10.24Z"/><path d="m578.52,148.96c-4,0-7.55-.85-10.64-2.56-3.09-1.71-5.52-4.11-7.28-7.2-1.76-3.09-2.64-6.67-2.64-10.72s.87-7.76,2.6-10.96,4.13-5.69,7.2-7.48c3.07-1.79,6.68-2.68,10.84-2.68,3.89,0,7.33.85,10.32,2.56,2.99,1.71,5.32,4.04,7,7s2.52,6.25,2.52,9.88c0,.59-.01,1.2-.04,1.84-.03.64-.07,1.31-.12,2h-30.16c.21,3.09,1.29,5.52,3.24,7.28,1.95,1.76,4.31,2.64,7.08,2.64,2.08,0,3.83-.47,5.24-1.4,1.41-.93,2.47-2.15,3.16-3.64h10.4c-.75,2.51-1.99,4.79-3.72,6.84-1.73,2.05-3.87,3.67-6.4,4.84-2.53,1.17-5.4,1.76-8.6,1.76Zm.08-33.28c-2.51,0-4.72.71-6.64,2.12-1.92,1.41-3.15,3.56-3.68,6.44h19.76c-.16-2.61-1.12-4.69-2.88-6.24s-3.95-2.32-6.56-2.32Z"/><path d="m621.32,148.96c-3.73,0-7.07-.91-10-2.72-2.93-1.81-5.25-4.29-6.96-7.44-1.71-3.15-2.56-6.72-2.56-10.72s.85-7.56,2.56-10.68c1.71-3.12,4.03-5.57,6.96-7.36,2.93-1.79,6.27-2.68,10-2.68,2.99,0,5.6.56,7.84,1.68,2.24,1.12,4.05,2.69,5.44,4.72v-23.36h10.24v57.6h-9.12l-1.12-5.68c-1.28,1.76-2.97,3.31-5.08,4.64-2.11,1.33-4.84,2-8.2,2Zm2.16-8.96c3.31,0,6.01-1.11,8.12-3.32,2.11-2.21,3.16-5.05,3.16-8.52s-1.05-6.31-3.16-8.52c-2.11-2.21-4.81-3.32-8.12-3.32s-5.95,1.09-8.08,3.28c-2.13,2.19-3.2,5.01-3.2,8.48s1.07,6.32,3.2,8.56,4.83,3.36,8.08,3.36Z"/><path d="m656.75,102.16c-1.87,0-3.4-.56-4.6-1.68s-1.8-2.53-1.8-4.24.6-3.11,1.8-4.2c1.2-1.09,2.73-1.64,4.6-1.64s3.4.55,4.6,1.64c1.2,1.09,1.8,2.49,1.8,4.2s-.6,3.12-1.8,4.24c-1.2,1.12-2.73,1.68-4.6,1.68Zm-5.12,45.84v-39.68h10.24v39.68h-10.24Z"/><path d="m682.28,148.96c-3.41,0-6.21-.55-8.4-1.64-2.19-1.09-3.81-2.55-4.88-4.36-1.07-1.81-1.6-3.81-1.6-6,0-3.68,1.44-6.67,4.32-8.96,2.88-2.29,7.2-3.44,12.96-3.44h10.08v-.96c0-2.72-.77-4.72-2.32-6-1.55-1.28-3.47-1.92-5.76-1.92-2.08,0-3.89.49-5.44,1.48-1.55.99-2.51,2.44-2.88,4.36h-10c.27-2.88,1.24-5.39,2.92-7.52,1.68-2.13,3.85-3.77,6.52-4.92,2.67-1.15,5.65-1.72,8.96-1.72,5.65,0,10.11,1.41,13.36,4.24,3.25,2.83,4.88,6.83,4.88,12v24.4h-8.72l-.96-6.4c-1.17,2.13-2.81,3.89-4.92,5.28-2.11,1.39-4.81,2.08-8.12,2.08Zm2.32-8c2.93,0,5.21-.96,6.84-2.88,1.63-1.92,2.65-4.29,3.08-7.12h-8.72c-2.72,0-4.67.49-5.84,1.48-1.17.99-1.76,2.2-1.76,3.64,0,1.55.59,2.75,1.76,3.6,1.17.85,2.72,1.28,4.64,1.28Z"/><path d="m187.6,80.14c-1.44,0-2.71-.25-3.81-.74s-1.97-1.2-2.6-2.13-.96-2.05-.98-3.37h3.78c.04.92.37,1.68.99,2.31s1.49.94,2.59.94c.95,0,1.71-.23,2.27-.69.56-.46.84-1.07.84-1.83s-.25-1.43-.74-1.88c-.49-.45-1.15-.81-1.97-1.09s-1.7-.58-2.63-.9c-1.51-.52-2.67-1.19-3.46-2.02-.79-.82-1.19-1.91-1.19-3.28-.02-1.16.26-2.15.83-2.98.57-.83,1.35-1.47,2.34-1.93s2.13-.69,3.42-.69,2.46.23,3.46.7c1,.47,1.78,1.12,2.35,1.96.57.84.87,1.84.91,3h-3.84c-.02-.69-.28-1.3-.8-1.83s-1.23-.8-2.14-.8c-.78-.02-1.44.17-1.97.57-.53.4-.8.98-.8,1.75,0,.65.21,1.17.62,1.55.41.38.97.71,1.68.97.71.26,1.52.54,2.44.84.97.34,1.86.73,2.66,1.18.8.45,1.45,1.04,1.93,1.78.49.74.73,1.68.73,2.84,0,1.03-.26,1.98-.78,2.86-.52.88-1.3,1.58-2.32,2.11-1.03.53-2.29.8-3.78.8Z"/><path d="m203.22,79.8v-19.6h3.58v19.6h-3.58Z"/><path d="m216.21,79.8v-19.6h3.58l9.21,13.8v-13.8h3.58v19.6h-3.58l-9.21-13.78v13.78h-3.58Z"/><path d="m250.88,80.14c-1.98,0-3.68-.42-5.1-1.27-1.42-.85-2.51-2.03-3.28-3.56-.77-1.52-1.15-3.28-1.15-5.28s.38-3.76,1.15-5.29c.76-1.53,1.86-2.72,3.28-3.58,1.42-.86,3.12-1.29,5.1-1.29,2.35,0,4.28.58,5.78,1.75,1.5,1.17,2.44,2.8,2.81,4.91h-3.95c-.24-1.06-.76-1.9-1.55-2.51-.79-.61-1.84-.91-3.15-.91-1.81,0-3.23.62-4.26,1.85-1.03,1.23-1.54,2.92-1.54,5.07s.51,3.83,1.54,5.05,2.45,1.83,4.26,1.83c1.31,0,2.36-.29,3.15-.85.79-.57,1.31-1.36,1.55-2.37h3.95c-.37,2.02-1.31,3.59-2.81,4.73-1.5,1.14-3.43,1.71-5.78,1.71Z"/><path d="m268.24,79.8v-19.6h3.58v8.15h8.79v-8.15h3.58v19.6h-3.58v-8.54h-8.79v8.54h-3.58Z"/><path d="m104,104h-10.4c0-11.24-5.48-19.07-10.4-19.07s-10.4,7.83-10.4,19.07c0,.18,0,.35,0,.52.06,10.2,1.96,19.95,5.43,28.13-9.19-3.08-15.83-14.56-15.83-28.65,0-16.52,9.14-29.47,20.8-29.47s20.8,12.94,20.8,29.47Z"/><path d="m93.6,104h-10.4c0,9.98,1.79,19.44,5.03,26.65,4.37,9.72,10,12.45,13.85,13.07-.11-.2-.21-.41-.32-.62-5.26-10.53-8.16-24.41-8.16-39.1Z"/><path d="m145.6,104c0-11.72-1.74-22.82-4.9-31.24-1.66-4.42-3.65-7.96-5.94-10.54-3.68-4.15-7.45-5.02-9.96-5.02-1.71,0-4.01.4-6.46,1.97,2.9,2.36,5.52,5.43,7.82,9.14,1.23,1.02,3.02,3.34,4.8,8.1,2.63,7.01,4.12,16.33,4.23,26.38,0,.12,0,.24,0,.37,0,.28,0,.56,0,.85h0c0,10.5-1.51,20.3-4.24,27.59-2.7,7.19-5.42,8.81-6.16,8.81s-3.47-1.62-6.16-8.81c-2.73-7.29-4.24-17.09-4.24-27.59h10.4c0-9.98-1.79-19.44-5.03-26.65-5.18-11.5-12.1-13.22-15.77-13.22-2.09,0-5.24.56-8.53,3.17.13.07.27.15.4.22,3.11,1.75,5.93,4.11,8.42,7.03,2.08.3,4.48,3.7,5.99,7.07,2.51,5.58,4,13.34,4.1,21.41,0,.1,0,.2,0,.29,0,.23,0,.45,0,.68h-10.4c0,11.72,1.74,22.81,4.9,31.24,1.66,4.42,3.65,7.97,5.94,10.54,3.68,4.15,7.45,5.02,9.96,5.02s6.29-.87,9.96-5.02c2.28-2.57,4.28-6.12,5.94-10.54,3.16-8.43,4.9-19.52,4.9-31.24h0Z"/><rect class="cls-1" x="52" y="52" width="104" height="104"/></svg>
